# xmcd
#
# Track frame offsets: 
#        150
#        16031
#        31949
#        49560
#        66558
#        80987
#        97206
#        111206
#        126184
#        143907
#        159112
#        175480
#        192192
#        208880
#        226913
#        240256
#        255664
#        271949
#        287470
#        305239
#        319484
#        339284
#        355867
#
# Disc length: 4793 seconds
#
# Revision: 0
# Processed by: cddbd v1.5.2PL0 Copyright (c) Steve Scherf et al.
# Submitted via: ExactAudioCopy v0.95a3
#
DISCID=5212b717
DTITLE=Various Artist - Станция 2000 Хит-Ревю 107 FM (Выпуск 2)
DYEAR=2001
DGENRE=
TTITLE0=Mauro Picotto - Proximus
TTITLE1=Fragma - Everytime You Need Me
TTITLE2=Storm - Stormanimal
TTITLE3=Warp Brothers - We Will Survive
TTITLE4=Dario G - Dream To Me
TTITLE5=Mythosn Dj Cosmo - Hymn
TTITLE6=Public Domain - Operation Blade
TTITLE7=Clubstars - Let Up Bass Kick
TTITLE8=DJ Aligator Project - Turn Up The Music
TTITLE9=York - Farewell To The Moon
TTITLE10=P2 - Fade To Grey
TTITLE11=Brooklyn Bounce - Born 2 Bounce
TTITLE12=RBA - No Alternative
TTITLE13=Moby - Find My Baby
TTITLE14=Potatoheads - Pump it Up
TTITLE15=Dj Red 5 vs. Djs @ Work - Rhythm And Drums
TTITLE16=Blank and Jones - Beyond Time
TTITLE17=Bismark - Make a Dream
TTITLE18=ATB - Let U Go
TTITLE19=Mario Piu - Techno Harmony
TTITLE20=Marc et Claude - Loving You
TTITLE21=Way Out West - The Fall
TTITLE22=Porn Kings - Sledger
EXTD=
EXTT0=
EXTT1=
EXTT2=
EXTT3=
EXTT4=
EXTT5=
EXTT6=
EXTT7=
EXTT8=
EXTT9=
EXTT10=
EXTT11=
EXTT12=
EXTT13=
EXTT14=
EXTT15=
EXTT16=
EXTT17=
EXTT18=
EXTT19=
EXTT20=
EXTT21=
EXTT22=
PLAYORDER=
